<?xml version="1.0" encoding="utf-8"?>
<!-- Generator: Adobe Illustrator 16.0.0, SVG Export Plug-In . SVG Version: 6.00 Build 0)  -->
<!DOCTYPE svg PUBLIC "-//W3C//DTD SVG 1.1//EN" "http://www.w3.org/Graphics/SVG/1.1/DTD/svg11.dtd">
<svg version="1.1" id="Layer_1" xmlns="http://www.w3.org/2000/svg" xmlns:xlink="http://www.w3.org/1999/xlink" x="0px" y="0px"
	 width="288px" height="288px" viewBox="-56 -9 288 288" enable-background="new -56 -9 288 288" xml:space="preserve">
<g>
	<g>
		<path fill="#231F20" d="M108.63,157.129c-37.546,4.326-42.123,19.549-27.13,31.123l-3.61-2.793l62.91,47.349
			c3.834,2.936,8.397,4.366,12.964,4.366c1.348,0,2.706-0.144,4.031-0.4c-0.008,0-0.016,0-0.036,0.015
			c0.028-0.015,0.054-0.024,0.069-0.024c1.108-0.202,2.193-0.513,3.255-0.892c0.127-0.043,0.262-0.112,0.386-0.161
			c0.981-0.376,1.958-0.816,2.883-1.343c0.067-0.039,0.143-0.088,0.211-0.129c0.941-0.542,1.834-1.193,2.681-1.879
			c0.177-0.156,0.365-0.306,0.527-0.463c0.827-0.738,1.643-1.525,2.372-2.413c7.157-8.803,5.626-21.56-3.408-28.527L108.63,157.129z
			"/>
		<path fill="#231F20" d="M139.958,36.955c-0.494-0.246-2.379-1.171-3.301-1.571c-0.663-0.228-1.281-0.51-1.952-0.729
			c-0.54-0.164-1.08-0.306-1.611-0.462c-1.923-0.549-3.888-1.044-5.887-1.468c-0.72-0.148-1.455-0.295-2.198-0.446
			c-1.918-0.335-3.883-0.609-5.876-0.826c-0.758-0.079-1.512-0.197-2.283-0.26c-2.672-0.237-5.393-0.373-8.169-0.376
			c-0.068,0-0.112,0-0.158,0H90.646H90.22v0.016c-0.622,0-1.278,0.023-1.948,0.035c-13.69,0.427-27.7,5.732-32.01,41.766
			c-0.068,0.022-0.113,0.049-0.169,0.073c2.335-0.837,10.882-1.274,14.894-1.274h33.883c18.521,0,20.612,8.335,21.047,16.808
			c0.009,0.217,0.031,0.439,0.031,0.665c0,3.356-1.397,6.685-4.294,9.508C158.396,86.862,169.395,52.431,139.958,36.955z"/>
		<path fill="#231F20" d="M83.583,30.816h-8.704H58.178c-35.399,0-58.269,21.865-58.269,55.718v130.343
			c0,5.245,2.096,9.965,5.457,13.591c0.152,0.152,0.273,0.33,0.415,0.481c0.162,0.162,0.308,0.316,0.467,0.462
			c0.79,0.767,1.663,1.441,2.576,2.062c0.198,0.154,0.42,0.283,0.633,0.425c0.942,0.579,1.926,1.125,2.968,1.559
			c0.199,0.096,0.4,0.161,0.605,0.24c1.097,0.431,2.243,0.782,3.43,1.034c0.128,0.026,0.262,0.035,0.396,0.066
			c1.279,0.246,2.594,0.379,3.938,0.379c11.526,0,20.869-9.095,20.869-20.297V86.534c0-0.668,0.03-1.286,0.062-1.913
			c0.018-1.49,0.068-2.93,0.151-4.326c0.059-1.092,0.15-2.146,0.239-3.178c0.033-0.312,0.04-0.625,0.074-0.939
			c0.097-1.045,0.229-2.07,0.374-3.067c0.028-0.261,0.055-0.546,0.098-0.799c0.133-0.998,0.298-1.946,0.466-2.889
			c0.049-0.245,0.093-0.53,0.127-0.78c0.18-0.905,0.384-1.794,0.59-2.667c0.056-0.252,0.11-0.519,0.168-0.77
			c0.206-0.847,0.441-1.663,0.666-2.479c0.069-0.244,0.135-0.506,0.212-0.742c0.236-0.783,0.493-1.523,0.741-2.264
			c0.098-0.262,0.171-0.519,0.263-0.775c0.263-0.706,0.533-1.379,0.81-2.052c0.1-0.259,0.206-0.53,0.323-0.778
			c0.271-0.646,0.549-1.245,0.852-1.853c0.12-0.263,0.242-0.535,0.381-0.804c0.292-0.574,0.584-1.125,0.898-1.669
			c0.147-0.259,0.287-0.523,0.428-0.772c0.308-0.514,0.623-1.019,0.936-1.513c0.163-0.256,0.335-0.521,0.507-0.764
			c0.312-0.473,0.635-0.918,0.951-1.356c0.192-0.254,0.366-0.516,0.566-0.754c0.313-0.414,0.649-0.816,0.982-1.208
			c0.204-0.245,0.413-0.489,0.622-0.72c0.32-0.378,0.654-0.733,0.993-1.091c0.229-0.228,0.456-0.471,0.676-0.698
			c0.337-0.318,0.673-0.644,1.001-0.938c0.249-0.246,0.5-0.464,0.745-0.689c0.334-0.294,0.661-0.558,0.996-0.82
			c0.27-0.225,0.534-0.45,0.809-0.652c0.327-0.251,0.662-0.492,0.981-0.728c0.289-0.208,0.58-0.406,0.87-0.609
			c0.323-0.219,0.641-0.427,0.971-0.636c0.308-0.192,0.616-0.375,0.923-0.56c0.316-0.189,0.641-0.379,0.962-0.542
			c0.324-0.19,0.65-0.363,0.97-0.525c0.313-0.174,0.617-0.32,0.935-0.487c0.341-0.152,0.68-0.318,1.037-0.474
			c0.298-0.133,0.598-0.268,0.885-0.394c0.368-0.155,0.727-0.296,1.083-0.439c0.292-0.11,0.586-0.227,0.888-0.344
			c0.364-0.131,0.725-0.258,1.104-0.379c0.284-0.092,0.569-0.197,0.855-0.287c0.38-0.127,0.749-0.235,1.123-0.337
			c0.283-0.078,0.566-0.167,0.841-0.236c0.387-0.112,0.776-0.208,1.151-0.299c0.282-0.069,0.537-0.13,0.814-0.202
			c0.376-0.074,0.762-0.158,1.154-0.238c0.261-0.055,0.536-0.109,0.787-0.159c0.385-0.071,0.759-0.134,1.133-0.202
			c0.268-0.04,0.546-0.09,0.814-0.127c0.356-0.062,0.707-0.106,1.063-0.158c0.276-0.039,0.568-0.073,0.851-0.115
			c0.316-0.039,0.645-0.065,0.979-0.104c0.29-0.032,0.6-0.077,0.895-0.086c0.274-0.038,0.536-0.048,0.821-0.074
			c0.342-0.029,0.683-0.054,1.02-0.076c0.196-0.013,0.395-0.037,0.583-0.042c0.421-0.027,0.814-0.035,1.212-0.062
			c0.08,0,0.158,0,0.227-0.007c0.999-0.032,1.989-0.056,2.919-0.056v-0.016H83.583z"/>
		<path fill="#231F20" d="M177.822,88.903c0-15.443-6.956-30.401-19.099-41.058c-1.962-1.708-4.043-3.26-6.208-4.708
			c-0.063-0.035-0.122-0.072-0.165-0.092c-1.031-0.69-2.13-1.25-3.204-1.875c17.438,11.102,22.206,29.303,12.794,43.532
			c-0.053,0.082-0.102,0.153-0.146,0.222c-0.521,0.771-1.058,1.523-1.667,2.268c-0.146,0.176-0.328,0.364-0.481,0.545
			c-0.518,0.612-1.05,1.23-1.636,1.829c-0.231,0.252-0.51,0.489-0.771,0.732c-0.53,0.519-1.053,1.035-1.644,1.537
			c-0.344,0.304-0.737,0.584-1.11,0.882c-0.522,0.432-1.04,0.86-1.598,1.268c-0.467,0.347-0.985,0.647-1.479,0.969
			c-0.515,0.347-1.003,0.718-1.549,1.042c-0.645,0.395-1.337,0.747-2.011,1.112c-0.438,0.24-0.859,0.508-1.323,0.747
			c-0.764,0.382-1.567,0.736-2.366,1.093c-0.437,0.204-0.845,0.419-1.284,0.591c-0.858,0.379-1.791,0.71-2.709,1.045
			c-0.42,0.159-0.806,0.336-1.238,0.472c-0.957,0.328-1.971,0.622-2.97,0.92c-0.439,0.126-0.86,0.282-1.297,0.395
			c-1.045,0.294-2.152,0.536-3.25,0.792c-0.449,0.104-0.872,0.218-1.332,0.313c-1.268,0.272-2.578,0.499-3.886,0.714
			c-0.36,0.051-0.668,0.129-1.016,0.183c-1.404,0.212-2.85,0.375-4.315,0.537c-0.302,0.032-0.599,0.083-0.908,0.108
			c-1.136,0.115-2.315,0.183-3.489,0.25c-0.695,0.061-1.354,0.119-2.062,0.15c-1.886,0.084-3.841,0.141-5.848,0.141
			c0.04,0,0.094-0.007,0.14-0.007c1.245-0.006,2.445-0.05,3.602-0.122c0.027,0,0.039,0,0.054,0c0.354-0.03,0.701-0.062,1.044-0.085
			c0.056-0.009,0.088-0.016,0.134-0.017c-0.387,0.039-0.781,0.071-1.178,0.102c-1.21,0.072-2.452,0.122-3.753,0.122
			c-0.022,0.007-0.042,0.007-0.077,0.007H95.002c-1.941,0-3.818,0.088-5.677,0.238c-0.41,0.038-0.815,0.071-1.217,0.097
			c-1.815,0.188-3.601,0.411-5.313,0.713c-0.165,0.033-0.329,0.07-0.488,0.1c-1.655,0.313-3.262,0.689-4.807,1.118
			c-0.242,0.067-0.465,0.138-0.693,0.201c-1.672,0.488-3.286,1.048-4.832,1.684c-0.1,0.035-0.21,0.084-0.312,0.131
			c-3.225,1.35-6.155,2.978-8.762,4.902c-0.027,0.021-0.058,0.038-0.084,0.062c-2.652,1.961-4.96,4.208-6.901,6.719
			c0,0.005-0.007,0.011-0.014,0.011c-2.182,2.839-3.921,5.991-5.104,9.472c-0.751,2.188-1.243,4.415-1.515,6.651
			c-0.025,0.14-0.025,0.285-0.044,0.425c-0.15,1.241-0.21,2.512-0.205,3.756c0,0.191,0,0.361,0.009,0.543
			c0.213,13.139,7.982,26.449,21.972,36.68l1.356,1.03c-14.293-11.029-13.783-26.064,17.505-31.831
			c4.453-0.831,9.548-1.464,15.308-1.878c0.918-0.119,2.025-0.202,3.338-0.202c2.472,0,4.857-0.112,7.209-0.29
			c0.605-0.039,1.214-0.075,1.8-0.127c0.256-0.019,0.522-0.032,0.772-0.061c-0.068,0-0.133-0.01-0.203-0.01
			C157.337,141.943,177.822,115.294,177.822,88.903z"/>
	</g>
</g>
</svg>
