<?xml version="1.0" encoding="utf-8"?>
<!-- Generator: Adobe Illustrator 16.0.0, SVG Export Plug-In . SVG Version: 6.00 Build 0)  -->
<!DOCTYPE svg PUBLIC "-//W3C//DTD SVG 1.0//EN" "http://www.w3.org/TR/2001/REC-SVG-20010904/DTD/svg10.dtd">
<svg version="1.0" id="Layer_1" xmlns="http://www.w3.org/2000/svg" xmlns:xlink="http://www.w3.org/1999/xlink" x="0px" y="0px"
	 width="288px" height="288px" viewBox="0 0 288 288" enable-background="new 0 0 288 288" xml:space="preserve">
<rect fill="#FFFFFF" width="288" height="288"/>
<g>
	<g>
		<g>
			<defs>
				<path id="SVGID_883_" d="M63.367,144.944c-13.688,1.57-15.36,7.092-9.889,11.291l-1.317-1.012l22.932,17.176
					c1.4,1.065,3.062,1.583,4.729,1.583c0.485,0,0.982-0.052,1.466-0.142c0,0-0.004,0-0.009,0.002
					c0.009-0.002,0.014-0.007,0.018-0.007c0.412-0.074,0.804-0.188,1.191-0.326c0.044-0.016,0.098-0.042,0.146-0.056
					c0.354-0.14,0.709-0.299,1.048-0.489c0.027-0.012,0.054-0.032,0.079-0.047c0.34-0.196,0.669-0.434,0.971-0.682
					c0.062-0.058,0.139-0.111,0.194-0.17c0.302-0.267,0.6-0.552,0.862-0.875c2.607-3.193,2.05-7.821-1.243-10.35L63.367,144.944
					L63.367,144.944z"/>
			</defs>
			<use xlink:href="#SVGID_883_"  overflow="visible"/>
			<clipPath id="SVGID_2_">
				<use xlink:href="#SVGID_883_"  overflow="visible"/>
			</clipPath>
			<g clip-path="url(#SVGID_2_)">
				<defs>
					<rect id="SVGID_885_" x="48.007" y="144.944" width="40.389" height="29.038"/>
				</defs>
				<use xlink:href="#SVGID_885_"  overflow="visible"/>
				<clipPath id="SVGID_4_">
					<use xlink:href="#SVGID_885_"  overflow="visible"/>
				</clipPath>
			</g>
		</g>
		<g>
			<defs>
				<path id="SVGID_887_" d="M74.787,101.346c-0.18-0.09-0.869-0.425-1.202-0.567c-0.247-0.083-0.466-0.186-0.713-0.264
					c-0.195-0.06-0.396-0.112-0.593-0.167c-0.698-0.198-1.413-0.381-2.144-0.534c-0.265-0.053-0.532-0.108-0.804-0.161
					c-0.7-0.122-1.412-0.22-2.142-0.302c-0.278-0.029-0.557-0.071-0.828-0.094c-0.976-0.085-1.969-0.135-2.983-0.137
					c-0.021,0-0.036,0-0.059,0h-6.512h-0.159v0.005c-0.227,0-0.467,0.008-0.71,0.013c-4.992,0.156-10.095,2.08-11.668,15.153
					c-0.027,0.004-0.049,0.016-0.065,0.026c0.856-0.304,3.973-0.462,5.43-0.462h12.356c6.747,0,7.509,3.025,7.673,6.1
					c0.005,0.077,0.01,0.158,0.01,0.24c0,1.216-0.513,2.426-1.567,3.449C81.511,119.453,85.514,106.963,74.787,101.346
					L74.787,101.346z"/>
			</defs>
			<use xlink:href="#SVGID_887_"  overflow="visible"/>
			<clipPath id="SVGID_6_">
				<use xlink:href="#SVGID_887_"  overflow="visible"/>
			</clipPath>
			<g clip-path="url(#SVGID_6_)">
				<defs>
					<rect id="SVGID_889_" x="44.206" y="99.119" width="41.308" height="24.523"/>
				</defs>
				<use xlink:href="#SVGID_889_"  overflow="visible"/>
				<clipPath id="SVGID_8_">
					<use xlink:href="#SVGID_889_"  overflow="visible"/>
				</clipPath>
			</g>
		</g>
		<g>
			<defs>
				<path id="SVGID_891_" d="M54.236,99.119h-3.176h-6.089c-12.906,0-21.241,7.932-21.241,20.213v47.286
					c0,1.905,0.761,3.617,1.988,4.934c0.055,0.055,0.101,0.118,0.155,0.173c0.056,0.059,0.106,0.115,0.169,0.166
					c0.283,0.278,0.602,0.523,0.939,0.747c0.07,0.055,0.151,0.105,0.227,0.156c0.343,0.211,0.708,0.41,1.084,0.568
					c0.073,0.035,0.146,0.056,0.218,0.086c0.401,0.155,0.822,0.282,1.253,0.375c0.049,0.009,0.098,0.014,0.146,0.023
					c0.467,0.087,0.947,0.137,1.436,0.137c4.203,0,7.61-3.299,7.61-7.364v-47.286c0-0.244,0.011-0.468,0.022-0.695
					c0.003-0.542,0.025-1.063,0.055-1.571c0.021-0.396,0.053-0.777,0.085-1.152c0.007-0.114,0.013-0.225,0.031-0.341
					c0.035-0.38,0.082-0.75,0.137-1.112c0.006-0.092,0.018-0.198,0.029-0.292c0.052-0.359,0.113-0.705,0.173-1.049
					c0.017-0.087,0.039-0.189,0.045-0.279c0.064-0.328,0.14-0.651,0.216-0.968c0.022-0.092,0.043-0.188,0.062-0.278
					c0.071-0.307,0.164-0.602,0.238-0.898c0.034-0.087,0.054-0.183,0.077-0.27c0.087-0.283,0.182-0.552,0.271-0.822
					c0.038-0.094,0.067-0.189,0.102-0.283c0.096-0.256,0.194-0.5,0.295-0.742c0.036-0.095,0.069-0.193,0.118-0.28
					c0.1-0.234,0.195-0.452,0.311-0.671c0.044-0.098,0.084-0.195,0.132-0.293c0.112-0.208,0.221-0.407,0.337-0.605
					c0.046-0.095,0.102-0.19,0.15-0.28c0.113-0.188,0.228-0.369,0.344-0.551c0.06-0.091,0.124-0.19,0.186-0.276
					c0.113-0.169,0.232-0.334,0.341-0.491c0.072-0.093,0.142-0.188,0.211-0.275c0.117-0.151,0.235-0.296,0.36-0.439
					c0.07-0.089,0.146-0.176,0.225-0.262c0.118-0.138,0.237-0.267,0.362-0.396c0.082-0.082,0.165-0.172,0.244-0.253
					c0.126-0.116,0.244-0.233,0.367-0.341c0.09-0.089,0.182-0.169,0.28-0.249c0.117-0.109,0.23-0.204,0.355-0.298
					c0.099-0.083,0.2-0.164,0.296-0.238c0.12-0.093,0.245-0.178,0.36-0.265c0.1-0.074,0.212-0.147,0.313-0.219
					c0.122-0.079,0.235-0.156,0.354-0.23c0.113-0.069,0.222-0.138,0.335-0.205c0.121-0.068,0.235-0.137,0.354-0.195
					c0.119-0.068,0.233-0.132,0.353-0.193c0.115-0.061,0.224-0.113,0.345-0.173c0.117-0.058,0.245-0.117,0.378-0.173
					c0.111-0.05,0.212-0.098,0.323-0.146c0.13-0.054,0.264-0.104,0.392-0.158c0.11-0.041,0.212-0.081,0.326-0.126
					c0.133-0.047,0.262-0.092,0.399-0.137c0.105-0.033,0.205-0.071,0.312-0.105c0.141-0.048,0.271-0.084,0.401-0.121
					c0.112-0.026,0.213-0.061,0.313-0.084c0.14-0.043,0.276-0.078,0.419-0.11c0.104-0.024,0.189-0.049,0.294-0.076
					c0.143-0.027,0.278-0.055,0.42-0.084c0.1-0.022,0.196-0.039,0.286-0.058c0.14-0.026,0.275-0.048,0.414-0.074
					c0.097-0.013,0.201-0.032,0.295-0.046c0.131-0.02,0.261-0.04,0.389-0.057c0.102-0.013,0.206-0.026,0.306-0.042
					c0.116-0.013,0.237-0.023,0.357-0.038c0.107-0.01,0.22-0.029,0.331-0.031c0.101-0.013,0.189-0.017,0.294-0.027
					c0.125-0.01,0.25-0.018,0.374-0.025c0.072-0.007,0.143-0.015,0.213-0.017c0.15-0.011,0.301-0.014,0.441-0.023
					c0.032,0,0.055,0,0.084-0.003c0.368-0.011,0.726-0.018,1.062-0.018v-0.005h-2.413V99.119L54.236,99.119z"/>
			</defs>
			<use xlink:href="#SVGID_891_"  overflow="visible"/>
			<clipPath id="SVGID_10_">
				<use xlink:href="#SVGID_891_"  overflow="visible"/>
			</clipPath>
			<g clip-path="url(#SVGID_10_)">
				<defs>
					<rect id="SVGID_893_" x="23.73" y="99.114" width="32.919" height="74.868"/>
				</defs>
				<use xlink:href="#SVGID_893_"  overflow="visible"/>
				<clipPath id="SVGID_12_">
					<use xlink:href="#SVGID_893_"  overflow="visible"/>
				</clipPath>
			</g>
		</g>
		<g>
			<defs>
				<path id="SVGID_895_" d="M88.594,120.193c0-5.603-2.537-11.03-6.967-14.893c-0.712-0.621-1.476-1.185-2.266-1.71
					c-0.019-0.01-0.043-0.025-0.053-0.033c-0.381-0.252-0.781-0.453-1.168-0.68c6.357,4.026,8.094,10.631,4.666,15.791
					c-0.024,0.03-0.045,0.057-0.058,0.081c-0.188,0.28-0.387,0.552-0.604,0.823c-0.053,0.064-0.118,0.133-0.178,0.199
					c-0.188,0.222-0.386,0.446-0.599,0.664c-0.083,0.092-0.183,0.178-0.28,0.268c-0.19,0.19-0.387,0.375-0.596,0.557
					c-0.125,0.111-0.271,0.212-0.404,0.321c-0.191,0.16-0.379,0.311-0.588,0.459c-0.162,0.124-0.356,0.232-0.531,0.352
					c-0.188,0.125-0.372,0.261-0.572,0.378c-0.228,0.143-0.483,0.272-0.728,0.402c-0.161,0.086-0.313,0.185-0.481,0.272
					c-0.281,0.137-0.578,0.269-0.866,0.397c-0.16,0.074-0.306,0.152-0.468,0.215c-0.311,0.136-0.653,0.254-0.99,0.379
					c-0.151,0.058-0.288,0.122-0.447,0.171c-0.352,0.119-0.721,0.225-1.082,0.333c-0.162,0.045-0.317,0.103-0.474,0.143
					c-0.384,0.108-0.782,0.195-1.188,0.285c-0.161,0.04-0.312,0.08-0.48,0.114c-0.468,0.101-0.943,0.179-1.424,0.259
					c-0.127,0.019-0.237,0.048-0.368,0.067c-0.507,0.077-1.036,0.136-1.573,0.193c-0.112,0.013-0.215,0.029-0.33,0.04
					c-0.416,0.042-0.844,0.066-1.273,0.092c-0.254,0.022-0.492,0.043-0.752,0.057c-0.691,0.028-1.399,0.052-2.134,0.052
					c0.012,0,0.041-0.003,0.055-0.003c0.45,0,0.893-0.018,1.311-0.043c0.013,0,0.013,0,0.024,0c0.13-0.012,0.253-0.022,0.38-0.029
					c0.019-0.004,0.037-0.006,0.049-0.008c-0.138,0.016-0.286,0.026-0.427,0.038c-0.443,0.026-0.892,0.043-1.377,0.043
					c0,0-0.01,0.003-0.026,0.003h-4.928c-0.712,0-1.389,0.032-2.069,0.087c-0.15,0.01-0.294,0.026-0.438,0.035
					c-0.665,0.069-1.312,0.151-1.938,0.259c-0.056,0.01-0.12,0.027-0.175,0.038c-0.604,0.11-1.188,0.25-1.755,0.403
					c-0.088,0.025-0.171,0.052-0.252,0.075c-0.607,0.177-1.195,0.38-1.759,0.611c-0.038,0.014-0.076,0.029-0.116,0.047
					c-1.18,0.49-2.246,1.081-3.196,1.779c-0.01,0.005-0.021,0.01-0.029,0.021c-0.966,0.715-1.806,1.53-2.511,2.439l-0.009,0.004
					c-0.799,1.03-1.434,2.175-1.862,3.435c-0.279,0.793-0.448,1.601-0.55,2.413c-0.014,0.054-0.014,0.106-0.018,0.157
					c-0.055,0.449-0.076,0.91-0.072,1.363c0,0.068,0,0.13,0,0.198c0.076,4.764,2.912,9.596,8.009,13.306l0.499,0.376
					c-5.21-4.001-5.021-9.453,6.38-11.549c1.624-0.301,3.483-0.53,5.585-0.679c0.33-0.045,0.741-0.074,1.214-0.074
					c0.901,0,1.775-0.043,2.627-0.106c0.225-0.012,0.442-0.026,0.654-0.046c0.095-0.007,0.191-0.013,0.282-0.021
					c-0.023,0-0.047-0.002-0.068-0.002C81.122,139.438,88.594,129.766,88.594,120.193L88.594,120.193z"/>
			</defs>
			<use xlink:href="#SVGID_895_"  overflow="visible"/>
			<clipPath id="SVGID_14_">
				<use xlink:href="#SVGID_895_"  overflow="visible"/>
			</clipPath>
			<g clip-path="url(#SVGID_14_)">
				<defs>
					<rect id="SVGID_897_" x="41.645" y="102.877" width="46.949" height="50.406"/>
				</defs>
				<use xlink:href="#SVGID_897_"  overflow="visible"/>
				<clipPath id="SVGID_16_">
					<use xlink:href="#SVGID_897_"  overflow="visible"/>
				</clipPath>
			</g>
		</g>
		<g>
			<defs>
				<path id="SVGID_899_" d="M239.044,144.944c-13.695,1.57-15.357,7.092-9.893,11.291l-1.319-1.012l22.938,17.176
					c1.389,1.065,3.062,1.583,4.724,1.583c0.492,0,0.983-0.052,1.474-0.142c-0.006,0-0.012,0-0.018,0.002
					c0.012-0.002,0.023-0.007,0.029-0.007c0.401-0.074,0.799-0.188,1.184-0.326c0.043-0.016,0.099-0.042,0.142-0.056
					c0.357-0.14,0.712-0.299,1.049-0.489c0.035-0.012,0.058-0.032,0.079-0.047c0.348-0.196,0.667-0.434,0.973-0.682
					c0.069-0.058,0.135-0.111,0.198-0.17c0.299-0.267,0.601-0.552,0.859-0.875c2.609-3.193,2.055-7.821-1.24-10.35L239.044,144.944
					L239.044,144.944z"/>
			</defs>
			<use xlink:href="#SVGID_899_"  overflow="visible"/>
			<clipPath id="SVGID_18_">
				<use xlink:href="#SVGID_899_"  overflow="visible"/>
			</clipPath>
			<g clip-path="url(#SVGID_18_)">
				<defs>
					<rect id="SVGID_901_" x="223.687" y="144.944" width="40.385" height="29.038"/>
				</defs>
				<use xlink:href="#SVGID_901_"  overflow="visible"/>
				<clipPath id="SVGID_20_">
					<use xlink:href="#SVGID_901_"  overflow="visible"/>
				</clipPath>
			</g>
		</g>
		<g>
			<defs>
				<path id="SVGID_903_" d="M250.46,101.346c-0.179-0.09-0.865-0.425-1.202-0.567c-0.242-0.083-0.468-0.186-0.712-0.264
					c-0.194-0.06-0.393-0.112-0.585-0.167c-0.709-0.198-1.417-0.381-2.15-0.534c-0.265-0.053-0.528-0.108-0.798-0.161
					c-0.704-0.122-1.416-0.22-2.153-0.302c-0.273-0.029-0.547-0.071-0.823-0.094c-0.977-0.085-1.968-0.135-2.986-0.137
					c-0.019,0-0.036,0-0.05,0h-6.518h-0.154v0.005c-0.228,0-0.469,0.008-0.715,0.013c-4.993,0.156-10.099,2.08-11.67,15.153
					c-0.03,0.004-0.045,0.016-0.063,0.026c0.853-0.304,3.969-0.462,5.431-0.462h12.351c6.756,0,7.52,3.025,7.668,6.1
					c0.014,0.077,0.015,0.158,0.015,0.24c0,1.216-0.504,2.426-1.556,3.449C257.188,119.453,261.195,106.963,250.46,101.346
					L250.46,101.346z"/>
			</defs>
			<use xlink:href="#SVGID_903_"  overflow="visible"/>
			<clipPath id="SVGID_22_">
				<use xlink:href="#SVGID_903_"  overflow="visible"/>
			</clipPath>
			<g clip-path="url(#SVGID_22_)">
				<defs>
					<rect id="SVGID_905_" x="219.88" y="99.119" width="41.315" height="24.523"/>
				</defs>
				<use xlink:href="#SVGID_905_"  overflow="visible"/>
				<clipPath id="SVGID_24_">
					<use xlink:href="#SVGID_905_"  overflow="visible"/>
				</clipPath>
			</g>
		</g>
		<g>
			<defs>
				<path id="SVGID_907_" d="M229.91,99.119h-3.168h-6.097c-12.904,0-21.241,7.932-21.241,20.213v47.286
					c0,1.905,0.77,3.617,1.993,4.934c0.056,0.055,0.099,0.118,0.148,0.173c0.059,0.059,0.11,0.115,0.169,0.166
					c0.286,0.278,0.609,0.523,0.94,0.747c0.07,0.055,0.152,0.105,0.228,0.156c0.349,0.211,0.708,0.41,1.084,0.568
					c0.071,0.035,0.148,0.056,0.22,0.086c0.402,0.155,0.822,0.282,1.256,0.375c0.047,0.009,0.093,0.014,0.14,0.023
					c0.468,0.087,0.947,0.137,1.444,0.137c4.196,0,7.604-3.299,7.604-7.364v-47.286c0-0.244,0.012-0.468,0.019-0.695
					c0.014-0.542,0.029-1.063,0.058-1.571c0.019-0.396,0.056-0.777,0.082-1.152c0.017-0.114,0.021-0.225,0.031-0.341
					c0.036-0.38,0.084-0.75,0.137-1.112c0.01-0.092,0.021-0.198,0.037-0.292c0.053-0.359,0.108-0.705,0.175-1.049
					c0.012-0.087,0.029-0.189,0.042-0.279c0.066-0.328,0.142-0.651,0.214-0.968c0.021-0.092,0.041-0.188,0.062-0.278
					c0.076-0.307,0.16-0.602,0.243-0.898c0.026-0.087,0.053-0.183,0.077-0.27c0.081-0.283,0.177-0.552,0.272-0.822
					c0.035-0.094,0.059-0.189,0.091-0.283c0.099-0.256,0.197-0.5,0.296-0.742c0.038-0.095,0.075-0.193,0.118-0.28
					c0.099-0.234,0.203-0.452,0.312-0.671c0.047-0.098,0.087-0.195,0.142-0.293c0.103-0.208,0.213-0.407,0.326-0.605
					c0.053-0.095,0.103-0.19,0.159-0.28c0.107-0.188,0.22-0.369,0.339-0.551c0.062-0.091,0.118-0.19,0.188-0.276
					c0.11-0.169,0.224-0.334,0.343-0.491c0.07-0.093,0.135-0.188,0.206-0.275c0.114-0.151,0.233-0.296,0.354-0.439
					c0.08-0.089,0.155-0.176,0.228-0.262c0.119-0.138,0.243-0.267,0.365-0.396c0.083-0.082,0.164-0.172,0.247-0.253
					c0.126-0.116,0.239-0.233,0.364-0.341c0.094-0.089,0.181-0.169,0.275-0.249c0.122-0.109,0.242-0.204,0.36-0.298
					c0.1-0.083,0.194-0.164,0.296-0.238c0.123-0.093,0.241-0.178,0.354-0.265c0.104-0.074,0.214-0.147,0.318-0.219
					c0.119-0.079,0.238-0.156,0.36-0.23c0.114-0.069,0.221-0.138,0.332-0.205c0.119-0.068,0.238-0.137,0.352-0.195
					c0.121-0.068,0.24-0.132,0.354-0.193c0.113-0.061,0.229-0.113,0.343-0.173c0.124-0.058,0.247-0.117,0.38-0.173
					c0.105-0.05,0.218-0.098,0.319-0.146c0.138-0.054,0.268-0.104,0.396-0.158c0.11-0.041,0.212-0.081,0.326-0.126
					c0.13-0.047,0.271-0.092,0.397-0.137c0.102-0.033,0.207-0.071,0.314-0.105c0.136-0.048,0.273-0.084,0.406-0.121
					c0.104-0.026,0.207-0.061,0.302-0.084c0.143-0.043,0.288-0.078,0.426-0.11c0.101-0.024,0.194-0.049,0.292-0.076
					c0.143-0.027,0.277-0.055,0.426-0.084c0.095-0.022,0.19-0.039,0.282-0.058c0.144-0.026,0.275-0.048,0.408-0.074
					c0.094-0.013,0.2-0.032,0.294-0.046c0.132-0.02,0.264-0.04,0.396-0.057c0.099-0.013,0.201-0.026,0.306-0.042
					c0.119-0.013,0.238-0.023,0.357-0.038c0.106-0.01,0.217-0.029,0.327-0.031c0.099-0.013,0.197-0.017,0.295-0.027
					c0.13-0.01,0.258-0.018,0.38-0.025c0.066-0.007,0.142-0.015,0.208-0.017c0.155-0.011,0.3-0.014,0.446-0.023
					c0.026,0,0.057,0,0.077-0.003c0.372-0.011,0.725-0.018,1.067-0.018v-0.005h-2.418V99.119L229.91,99.119z"/>
			</defs>
			<use xlink:href="#SVGID_907_"  overflow="visible"/>
			<clipPath id="SVGID_26_">
				<use xlink:href="#SVGID_907_"  overflow="visible"/>
			</clipPath>
			<g clip-path="url(#SVGID_26_)">
				<defs>
					<rect id="SVGID_909_" x="199.404" y="99.114" width="32.924" height="74.868"/>
				</defs>
				<use xlink:href="#SVGID_909_"  overflow="visible"/>
				<clipPath id="SVGID_28_">
					<use xlink:href="#SVGID_909_"  overflow="visible"/>
				</clipPath>
			</g>
		</g>
		<g>
			<defs>
				<path id="SVGID_911_" d="M264.27,120.193c0-5.603-2.537-11.03-6.966-14.893c-0.717-0.621-1.479-1.185-2.271-1.71
					c-0.019-0.01-0.041-0.025-0.053-0.033c-0.375-0.252-0.773-0.453-1.166-0.68c6.359,4.026,8.093,10.631,4.664,15.791
					c-0.023,0.03-0.037,0.057-0.058,0.081c-0.187,0.28-0.387,0.552-0.604,0.823c-0.053,0.064-0.119,0.133-0.172,0.199
					c-0.192,0.222-0.387,0.446-0.599,0.664c-0.09,0.092-0.186,0.178-0.28,0.268c-0.196,0.19-0.385,0.375-0.599,0.557
					c-0.125,0.111-0.274,0.212-0.402,0.321c-0.193,0.16-0.385,0.311-0.585,0.459c-0.172,0.124-0.363,0.232-0.546,0.352
					c-0.18,0.125-0.36,0.261-0.562,0.378c-0.231,0.143-0.484,0.272-0.729,0.402c-0.16,0.086-0.313,0.185-0.484,0.272
					c-0.277,0.137-0.573,0.269-0.864,0.397c-0.158,0.074-0.301,0.152-0.47,0.215c-0.312,0.136-0.646,0.254-0.98,0.379
					c-0.161,0.058-0.296,0.122-0.455,0.171c-0.352,0.119-0.719,0.225-1.076,0.333c-0.165,0.045-0.318,0.103-0.479,0.143
					c-0.38,0.108-0.783,0.195-1.182,0.285c-0.162,0.04-0.322,0.08-0.488,0.114c-0.463,0.101-0.941,0.179-1.415,0.259
					c-0.132,0.019-0.244,0.048-0.376,0.067c-0.508,0.077-1.037,0.136-1.567,0.193c-0.115,0.013-0.22,0.029-0.336,0.04
					c-0.409,0.042-0.84,0.066-1.272,0.092c-0.258,0.022-0.488,0.043-0.746,0.057c-0.698,0.028-1.406,0.052-2.134,0.052
					c0.009,0,0.032-0.003,0.047-0.003c0.457,0,0.893-0.018,1.317-0.043c0.008,0,0.012,0,0.02,0c0.13-0.012,0.256-0.022,0.383-0.029
					c0.015-0.004,0.032-0.006,0.047-0.008c-0.139,0.016-0.285,0.026-0.43,0.038c-0.444,0.026-0.893,0.043-1.365,0.043
					c-0.012,0.003-0.016,0.003-0.03,0.003h-4.928c-0.713,0-1.389,0.032-2.069,0.087c-0.156,0.01-0.294,0.026-0.446,0.035
					c-0.66,0.069-1.311,0.151-1.936,0.259c-0.062,0.01-0.119,0.027-0.181,0.038c-0.604,0.11-1.18,0.25-1.749,0.403
					c-0.087,0.025-0.175,0.052-0.254,0.075c-0.61,0.177-1.196,0.38-1.757,0.611c-0.044,0.014-0.076,0.029-0.114,0.047
					c-1.179,0.49-2.248,1.081-3.196,1.779c-0.015,0.005-0.021,0.01-0.031,0.021c-0.971,0.715-1.811,1.53-2.517,2.439l-0.004,0.004
					c-0.798,1.03-1.433,2.175-1.862,3.435c-0.276,0.793-0.458,1.601-0.555,2.413c-0.006,0.054-0.006,0.106-0.016,0.157
					c-0.057,0.449-0.078,0.91-0.071,1.363c0,0.068,0,0.13,0,0.198c0.081,4.764,2.915,9.596,8.014,13.306l0.495,0.376
					c-5.208-4.001-5.022-9.453,6.378-11.549c1.624-0.301,3.481-0.53,5.582-0.679c0.337-0.045,0.743-0.074,1.223-0.074
					c0.901,0,1.772-0.043,2.627-0.106c0.218-0.012,0.437-0.026,0.654-0.046c0.087-0.007,0.191-0.013,0.284-0.021
					c-0.026,0-0.057-0.002-0.077-0.002C256.799,139.438,264.27,129.766,264.27,120.193L264.27,120.193z"/>
			</defs>
			<use xlink:href="#SVGID_911_"  overflow="visible"/>
			<clipPath id="SVGID_30_">
				<use xlink:href="#SVGID_911_"  overflow="visible"/>
			</clipPath>
			<g clip-path="url(#SVGID_30_)">
				<defs>
					<rect id="SVGID_913_" x="217.312" y="102.877" width="46.957" height="50.406"/>
				</defs>
				<use xlink:href="#SVGID_913_"  overflow="visible"/>
				<clipPath id="SVGID_32_">
					<use xlink:href="#SVGID_913_"  overflow="visible"/>
				</clipPath>
			</g>
		</g>
		<path d="M121.122,143.596h18.822l-9.411-21.98L121.122,143.596L121.122,143.596z M144.409,153.833h-27.754l-6.59,15.756
			c-1.171,2.813-3.295,3.918-6.467,3.918c-3.176,0-6.819-1.91-6.819-5.525c0-0.803,0.118-1.402,0.468-2.206l26.819-62.627
			c1.057-2.509,3.297-3.712,6.348-3.712c2.941,0,5.411,1.203,6.469,3.712l26.812,62.427c0.238,0.603,0.476,1.303,0.476,2.104
			c0,3.516-3.412,5.823-6.936,5.823c-2.588,0-5.06-1.004-6.234-3.917L144.409,153.833L144.409,153.833z"/>
		<g>
			<defs>
				<path id="SVGID_915_" d="M189.314,105.155v62.53c0,3.611-2.694,5.822-7.1,5.822c-3.917,0-6.981-2.211-6.981-5.822v-62.53
					c0-3.511,3.064-5.719,6.981-5.719C186.62,99.438,189.314,101.648,189.314,105.155L189.314,105.155z"/>
			</defs>
			<use xlink:href="#SVGID_915_"  overflow="visible"/>
			<clipPath id="SVGID_34_">
				<use xlink:href="#SVGID_915_"  overflow="visible"/>
			</clipPath>
			<g clip-path="url(#SVGID_34_)">
				<defs>
					<rect id="SVGID_917_" x="175.233" y="99.437" width="14.081" height="74.071"/>
				</defs>
				<use xlink:href="#SVGID_917_"  overflow="visible"/>
				<clipPath id="SVGID_36_">
					<use xlink:href="#SVGID_917_"  overflow="visible"/>
				</clipPath>
			</g>
		</g>
	</g>
	<g>
		<g>
			<g>
				<path d="M81.069,191.632c0,2.025-0.902,3.037-2.705,3.037h-4.937v3.933c0,0.477-0.213,0.715-0.637,0.715h-0.956v-10.724h6.529
					C80.167,188.593,81.069,189.606,81.069,191.632z M79.479,191.632c0-1.073-0.479-1.609-1.435-1.609h-4.617v3.217h4.617
					C79,193.239,79.479,192.703,79.479,191.632z"/>
				<path d="M100.133,199.316H98.9c-0.427,0-0.809-0.238-1.169-0.715l-2.931-3.933h-2.787v3.933c0,0.477-0.213,0.715-0.639,0.715
					h-0.952v-10.724h6.527c1.805,0,2.706,1.014,2.706,3.039s-0.901,3.037-2.706,3.037h-0.279L100.133,199.316z M96.631,193.239
					c0.954,0,1.433-0.536,1.433-1.607c0-1.073-0.479-1.609-1.433-1.609h-4.617v3.217H96.631z"/>
				<path d="M118.945,192.346v3.217c0,2.502-1.115,3.754-3.345,3.754h-3.183c-2.23,0-3.344-1.252-3.344-3.754v-3.217
					c0-2.502,1.113-3.753,3.344-3.753h3.183C117.83,188.593,118.945,189.844,118.945,192.346z M117.353,192.346
					c0-1.549-0.69-2.323-2.069-2.323h-2.546c-1.382,0-2.071,0.774-2.071,2.323v3.217c0,1.549,0.689,2.323,2.071,2.323h2.546
					c1.379,0,2.069-0.774,2.069-2.323V192.346z"/>
				<path d="M137.837,188.593v0.714c0,0.477-0.212,0.715-0.637,0.715h-3.502v9.294h-1.595v-9.294H128.6
					c-0.423,0-0.634-0.238-0.634-0.715v-0.714H137.837z"/>
				<path d="M156.729,192.346v3.217c0,2.502-1.116,3.754-3.345,3.754h-3.183c-2.229,0-3.345-1.252-3.345-3.754v-3.217
					c0-2.502,1.115-3.753,3.345-3.753h3.183C155.612,188.593,156.729,189.844,156.729,192.346z M155.138,192.346
					c0-1.549-0.691-2.323-2.071-2.323h-2.549c-1.38,0-2.069,0.774-2.069,2.323v3.217c0,1.549,0.689,2.323,2.069,2.323h2.549
					c1.38,0,2.071-0.774,2.071-2.323V192.346z"/>
				<path d="M175.353,198.602v0.715h-5.731c-2.229,0-3.345-1.252-3.345-3.754v-3.217c0-2.502,1.115-3.753,3.345-3.753h5.571v0.714
					c0,0.477-0.21,0.715-0.635,0.715h-4.619c-1.38,0-2.069,0.774-2.069,2.323v3.217c0,1.549,0.689,2.323,2.069,2.323h4.777
					C175.142,197.886,175.353,198.125,175.353,198.602z"/>
				<path d="M194.444,192.346v3.217c0,2.502-1.116,3.754-3.345,3.754h-3.186c-2.227,0-3.342-1.252-3.342-3.754v-3.217
					c0-2.502,1.115-3.753,3.342-3.753h3.186C193.328,188.593,194.444,189.844,194.444,192.346z M192.852,192.346
					c0-1.549-0.689-2.323-2.069-2.323h-2.549c-1.378,0-2.069,0.774-2.069,2.323v3.217c0,1.549,0.691,2.323,2.069,2.323h2.549
					c1.38,0,2.069-0.774,2.069-2.323V192.346z"/>
				<path d="M212.725,198.602v0.715h-8.598v-10.724h0.955c0.424,0,0.637,0.239,0.637,0.714v8.579h6.369
					C212.512,197.886,212.725,198.125,212.725,198.602z"/>
			</g>
		</g>
		<path d="M63.916,194.489H46.861c-0.416,0-0.753-0.336-0.753-0.753c0-0.416,0.337-0.753,0.753-0.753h17.055
			c0.416,0,0.753,0.337,0.753,0.753C64.669,194.152,64.332,194.489,63.916,194.489z"/>
		<path d="M235.251,194.489h-17.058c-0.416,0-0.753-0.336-0.753-0.753c0-0.416,0.337-0.753,0.753-0.753h17.058
			c0.416,0,0.753,0.337,0.753,0.753C236.004,194.152,235.667,194.489,235.251,194.489z"/>
	</g>
</g>
</svg>
